%TF.GenerationSoftware,KiCad,Pcbnew,(6.0.5)*%
%TF.CreationDate,2023-01-12T11:55:51-05:00*%
%TF.ProjectId,12ax7_pins,31326178-375f-4706-996e-732e6b696361,rev?*%
%TF.SameCoordinates,Original*%
%TF.FileFunction,Legend,Top*%
%TF.FilePolarity,Positive*%
%FSLAX46Y46*%
G04 Gerber Fmt 4.6, Leading zero omitted, Abs format (unit mm)*
G04 Created by KiCad (PCBNEW (6.0.5)) date 2023-01-12 11:55:51*
%MOMM*%
%LPD*%
G01*
G04 APERTURE LIST*
%ADD10C,0.200000*%
%ADD11C,0.300000*%
%ADD12C,0.120000*%
G04 APERTURE END LIST*
D10*
X159472380Y-101139047D02*
X160186666Y-101139047D01*
X160329523Y-101186666D01*
X160424761Y-101281904D01*
X160472380Y-101424761D01*
X160472380Y-101520000D01*
X160472380Y-100186666D02*
X160472380Y-100662857D01*
X159472380Y-100662857D01*
X160377142Y-99281904D02*
X160424761Y-99329523D01*
X160472380Y-99472380D01*
X160472380Y-99567619D01*
X160424761Y-99710476D01*
X160329523Y-99805714D01*
X160234285Y-99853333D01*
X160043809Y-99900952D01*
X159900952Y-99900952D01*
X159710476Y-99853333D01*
X159615238Y-99805714D01*
X159520000Y-99710476D01*
X159472380Y-99567619D01*
X159472380Y-99472380D01*
X159520000Y-99329523D01*
X159567619Y-99281904D01*
X159472380Y-98567619D02*
X160186666Y-98567619D01*
X160329523Y-98615238D01*
X160424761Y-98710476D01*
X160472380Y-98853333D01*
X160472380Y-98948571D01*
X160472380Y-97615238D02*
X160472380Y-98091428D01*
X159472380Y-98091428D01*
X160377142Y-96710476D02*
X160424761Y-96758095D01*
X160472380Y-96900952D01*
X160472380Y-96996190D01*
X160424761Y-97139047D01*
X160329523Y-97234285D01*
X160234285Y-97281904D01*
X160043809Y-97329523D01*
X159900952Y-97329523D01*
X159710476Y-97281904D01*
X159615238Y-97234285D01*
X159520000Y-97139047D01*
X159472380Y-96996190D01*
X159472380Y-96900952D01*
X159520000Y-96758095D01*
X159567619Y-96710476D01*
X159472380Y-95996190D02*
X160186666Y-95996190D01*
X160329523Y-96043809D01*
X160424761Y-96139047D01*
X160472380Y-96281904D01*
X160472380Y-96377142D01*
X160472380Y-95043809D02*
X160472380Y-95520000D01*
X159472380Y-95520000D01*
X160377142Y-94139047D02*
X160424761Y-94186666D01*
X160472380Y-94329523D01*
X160472380Y-94424761D01*
X160424761Y-94567619D01*
X160329523Y-94662857D01*
X160234285Y-94710476D01*
X160043809Y-94758095D01*
X159900952Y-94758095D01*
X159710476Y-94710476D01*
X159615238Y-94662857D01*
X159520000Y-94567619D01*
X159472380Y-94424761D01*
X159472380Y-94329523D01*
X159520000Y-94186666D01*
X159567619Y-94139047D01*
X159472380Y-93424761D02*
X160186666Y-93424761D01*
X160329523Y-93472380D01*
X160424761Y-93567619D01*
X160472380Y-93710476D01*
X160472380Y-93805714D01*
X160472380Y-92472380D02*
X160472380Y-92948571D01*
X159472380Y-92948571D01*
X160377142Y-91567619D02*
X160424761Y-91615238D01*
X160472380Y-91758095D01*
X160472380Y-91853333D01*
X160424761Y-91996190D01*
X160329523Y-92091428D01*
X160234285Y-92139047D01*
X160043809Y-92186666D01*
X159900952Y-92186666D01*
X159710476Y-92139047D01*
X159615238Y-92091428D01*
X159520000Y-91996190D01*
X159472380Y-91853333D01*
X159472380Y-91758095D01*
X159520000Y-91615238D01*
X159567619Y-91567619D01*
D11*
X158158571Y-106762857D02*
X156658571Y-106762857D01*
X157372857Y-106762857D02*
X157372857Y-105905714D01*
X158158571Y-105905714D02*
X156658571Y-105905714D01*
X156801428Y-105262857D02*
X156730000Y-105191428D01*
X156658571Y-105048571D01*
X156658571Y-104691428D01*
X156730000Y-104548571D01*
X156801428Y-104477142D01*
X156944285Y-104405714D01*
X157087142Y-104405714D01*
X157301428Y-104477142D01*
X158158571Y-105334285D01*
X158158571Y-104405714D01*
X155618571Y-106762857D02*
X154118571Y-106762857D01*
X155618571Y-105905714D02*
X154761428Y-106548571D01*
X154118571Y-105905714D02*
X154975714Y-106762857D01*
X154261428Y-105334285D02*
X154190000Y-105262857D01*
X154118571Y-105120000D01*
X154118571Y-104762857D01*
X154190000Y-104620000D01*
X154261428Y-104548571D01*
X154404285Y-104477142D01*
X154547142Y-104477142D01*
X154761428Y-104548571D01*
X155618571Y-105405714D01*
X155618571Y-104477142D01*
X151650000Y-105977142D02*
X151578571Y-106120000D01*
X151578571Y-106334285D01*
X151650000Y-106548571D01*
X151792857Y-106691428D01*
X151935714Y-106762857D01*
X152221428Y-106834285D01*
X152435714Y-106834285D01*
X152721428Y-106762857D01*
X152864285Y-106691428D01*
X153007142Y-106548571D01*
X153078571Y-106334285D01*
X153078571Y-106191428D01*
X153007142Y-105977142D01*
X152935714Y-105905714D01*
X152435714Y-105905714D01*
X152435714Y-106191428D01*
X151721428Y-105334285D02*
X151650000Y-105262857D01*
X151578571Y-105120000D01*
X151578571Y-104762857D01*
X151650000Y-104620000D01*
X151721428Y-104548571D01*
X151864285Y-104477142D01*
X152007142Y-104477142D01*
X152221428Y-104548571D01*
X153078571Y-105405714D01*
X153078571Y-104477142D01*
X150110000Y-106834285D02*
X150110000Y-106120000D01*
X150538571Y-106977142D02*
X149038571Y-106477142D01*
X150538571Y-105977142D01*
X149181428Y-105548571D02*
X149110000Y-105477142D01*
X149038571Y-105334285D01*
X149038571Y-104977142D01*
X149110000Y-104834285D01*
X149181428Y-104762857D01*
X149324285Y-104691428D01*
X149467142Y-104691428D01*
X149681428Y-104762857D01*
X150538571Y-105620000D01*
X150538571Y-104691428D01*
X160698571Y-106762857D02*
X159198571Y-106762857D01*
X159912857Y-106762857D02*
X159912857Y-105905714D01*
X160698571Y-105905714D02*
X159198571Y-105905714D01*
X170858571Y-106762857D02*
X169358571Y-106762857D01*
X170072857Y-106762857D02*
X170072857Y-105905714D01*
X170858571Y-105905714D02*
X169358571Y-105905714D01*
X168318571Y-106762857D02*
X166818571Y-106762857D01*
X168318571Y-105905714D02*
X167461428Y-106548571D01*
X166818571Y-105905714D02*
X167675714Y-106762857D01*
X168318571Y-104477142D02*
X168318571Y-105334285D01*
X168318571Y-104905714D02*
X166818571Y-104905714D01*
X167032857Y-105048571D01*
X167175714Y-105191428D01*
X167247142Y-105334285D01*
X164350000Y-105977142D02*
X164278571Y-106120000D01*
X164278571Y-106334285D01*
X164350000Y-106548571D01*
X164492857Y-106691428D01*
X164635714Y-106762857D01*
X164921428Y-106834285D01*
X165135714Y-106834285D01*
X165421428Y-106762857D01*
X165564285Y-106691428D01*
X165707142Y-106548571D01*
X165778571Y-106334285D01*
X165778571Y-106191428D01*
X165707142Y-105977142D01*
X165635714Y-105905714D01*
X165135714Y-105905714D01*
X165135714Y-106191428D01*
X165778571Y-104477142D02*
X165778571Y-105334285D01*
X165778571Y-104905714D02*
X164278571Y-104905714D01*
X164492857Y-105048571D01*
X164635714Y-105191428D01*
X164707142Y-105334285D01*
X162810000Y-106834285D02*
X162810000Y-106120000D01*
X163238571Y-106977142D02*
X161738571Y-106477142D01*
X163238571Y-105977142D01*
X163238571Y-104691428D02*
X163238571Y-105548571D01*
X163238571Y-105120000D02*
X161738571Y-105120000D01*
X161952857Y-105262857D01*
X162095714Y-105405714D01*
X162167142Y-105548571D01*
D12*
%TO.C,U1*%
X170259067Y-93530000D02*
G75*
G03*
X170259067Y-93530000I-10239067J0D01*
G01*
%TO.C,J1*%
X171500000Y-107890000D02*
X171500000Y-109220000D01*
X148520000Y-107890000D02*
X148520000Y-110550000D01*
X168900000Y-107890000D02*
X168900000Y-110550000D01*
X168900000Y-110550000D02*
X148520000Y-110550000D01*
X168900000Y-107890000D02*
X148520000Y-107890000D01*
X170170000Y-107890000D02*
X171500000Y-107890000D01*
%TD*%
M02*
