%TF.GenerationSoftware,KiCad,Pcbnew,(6.0.5)*%
%TF.CreationDate,2023-02-15T13:57:15-05:00*%
%TF.ProjectId,12ax7_socket,31326178-375f-4736-9f63-6b65742e6b69,rev?*%
%TF.SameCoordinates,Original*%
%TF.FileFunction,Copper,L2,Bot*%
%TF.FilePolarity,Positive*%
%FSLAX46Y46*%
G04 Gerber Fmt 4.6, Leading zero omitted, Abs format (unit mm)*
G04 Created by KiCad (PCBNEW (6.0.5)) date 2023-02-15 13:57:15*
%MOMM*%
%LPD*%
G01*
G04 APERTURE LIST*
G04 Aperture macros list*
%AMHorizOval*
0 Thick line with rounded ends*
0 $1 width*
0 $2 $3 position (X,Y) of the first rounded end (center of the circle)*
0 $4 $5 position (X,Y) of the second rounded end (center of the circle)*
0 Add line between two ends*
20,1,$1,$2,$3,$4,$5,0*
0 Add two circle primitives to create the rounded ends*
1,1,$1,$2,$3*
1,1,$1,$4,$5*%
G04 Aperture macros list end*
%TA.AperFunction,ComponentPad*%
%ADD10HorizOval,1.600000X-0.970820X-0.705342X0.970820X0.705342X0*%
%TD*%
%TA.AperFunction,ComponentPad*%
%ADD11HorizOval,1.600000X-0.370820X-1.141268X0.370820X1.141268X0*%
%TD*%
%TA.AperFunction,ComponentPad*%
%ADD12HorizOval,1.600000X-0.370820X1.141268X0.370820X-1.141268X0*%
%TD*%
%TA.AperFunction,ComponentPad*%
%ADD13HorizOval,1.600000X-0.970820X0.705342X0.970820X-0.705342X0*%
%TD*%
%TA.AperFunction,ComponentPad*%
%ADD14O,4.000000X1.600000*%
%TD*%
%TA.AperFunction,ComponentPad*%
%ADD15R,1.700000X1.700000*%
%TD*%
%TA.AperFunction,ComponentPad*%
%ADD16O,1.700000X1.700000*%
%TD*%
%TA.AperFunction,Conductor*%
%ADD17C,1.000000*%
%TD*%
G04 APERTURE END LIST*
D10*
%TO.P,U1,1,A*%
%TO.N,/A1*%
X164125680Y-99630984D03*
D11*
%TO.P,U1,2,G*%
%TO.N,/G1*%
X166663130Y-96138484D03*
D12*
%TO.P,U1,3,K*%
%TO.N,/K1*%
X166663130Y-91821516D03*
D13*
%TO.P,U1,4,F1*%
%TO.N,/H1*%
X164125680Y-88329016D03*
D14*
%TO.P,U1,5,F1*%
%TO.N,/H3*%
X160020000Y-86995000D03*
D10*
%TO.P,U1,6,A*%
%TO.N,/A2*%
X155914320Y-88329016D03*
D11*
%TO.P,U1,7,G*%
%TO.N,/G2*%
X153376870Y-91821516D03*
D12*
%TO.P,U1,8,K*%
%TO.N,/K2*%
X153376870Y-96138484D03*
D13*
%TO.P,U1,9,F2*%
%TO.N,/H2*%
X155914320Y-99630984D03*
%TD*%
D15*
%TO.P,J1,1,Pin_1*%
%TO.N,/H1*%
X170170000Y-109220000D03*
D16*
%TO.P,J1,2,Pin_2*%
%TO.N,/K1*%
X167630000Y-109220000D03*
%TO.P,J1,3,Pin_3*%
%TO.N,/G1*%
X165090000Y-109220000D03*
%TO.P,J1,4,Pin_4*%
%TO.N,/A1*%
X162550000Y-109220000D03*
%TO.P,J1,5,Pin_5*%
%TO.N,/H3*%
X160010000Y-109220000D03*
%TO.P,J1,6,Pin_6*%
%TO.N,/H2*%
X157470000Y-109220000D03*
%TO.P,J1,7,Pin_7*%
%TO.N,/K2*%
X154930000Y-109220000D03*
%TO.P,J1,8,Pin_8*%
%TO.N,/G2*%
X152390000Y-109220000D03*
%TO.P,J1,9,Pin_9*%
%TO.N,/A2*%
X149850000Y-109220000D03*
%TD*%
D17*
%TO.N,/A1*%
X162550000Y-101206664D02*
X164125680Y-99630984D01*
X162550000Y-109220000D02*
X162550000Y-101206664D01*
%TO.N,/G1*%
X165090000Y-102245000D02*
X166663130Y-100671870D01*
X165090000Y-109220000D02*
X165090000Y-102245000D01*
X166663130Y-100671870D02*
X166663130Y-96138484D01*
%TO.N,/K1*%
X167630000Y-109220000D02*
X167630000Y-103137985D01*
X168652015Y-102115970D02*
X168652015Y-93810401D01*
X167630000Y-103137985D02*
X168652015Y-102115970D01*
X168652015Y-93810401D02*
X166663130Y-91821516D01*
%TO.N,/H1*%
X170170000Y-91602516D02*
X166896500Y-88329016D01*
X166896500Y-88329016D02*
X164125680Y-88329016D01*
X170170000Y-109220000D02*
X170170000Y-91602516D01*
%TO.N,/H2*%
X157470000Y-109220000D02*
X157470000Y-101186664D01*
X157470000Y-101186664D02*
X155914320Y-99630984D01*
%TO.N,/A2*%
X149850000Y-109220000D02*
X149850000Y-91450000D01*
X149850000Y-91450000D02*
X152970984Y-88329016D01*
X152970984Y-88329016D02*
X155914320Y-88329016D01*
%TO.N,/G2*%
X152390000Y-109220000D02*
X152390000Y-103495000D01*
X151387985Y-102492985D02*
X151387985Y-93810401D01*
X151387985Y-93810401D02*
X153376870Y-91821516D01*
X152390000Y-103495000D02*
X151387985Y-102492985D01*
%TO.N,/K2*%
X154930000Y-102225000D02*
X153376870Y-100671870D01*
X153376870Y-100671870D02*
X153376870Y-96138484D01*
X154930000Y-109220000D02*
X154930000Y-102225000D01*
%TO.N,/H3*%
X160010000Y-99705000D02*
X160010000Y-109220000D01*
X160020000Y-88265000D02*
X163830000Y-92075000D01*
X163830000Y-95885000D02*
X160010000Y-99705000D01*
X160020000Y-86995000D02*
X160020000Y-88265000D01*
X163830000Y-92075000D02*
X163830000Y-95885000D01*
%TD*%
M02*
