%TF.GenerationSoftware,KiCad,Pcbnew,(6.0.5)*%
%TF.CreationDate,2023-02-15T13:57:15-05:00*%
%TF.ProjectId,12ax7_socket,31326178-375f-4736-9f63-6b65742e6b69,rev?*%
%TF.SameCoordinates,Original*%
%TF.FileFunction,Copper,L1,Top*%
%TF.FilePolarity,Positive*%
%FSLAX46Y46*%
G04 Gerber Fmt 4.6, Leading zero omitted, Abs format (unit mm)*
G04 Created by KiCad (PCBNEW (6.0.5)) date 2023-02-15 13:57:15*
%MOMM*%
%LPD*%
G01*
G04 APERTURE LIST*
G04 Aperture macros list*
%AMHorizOval*
0 Thick line with rounded ends*
0 $1 width*
0 $2 $3 position (X,Y) of the first rounded end (center of the circle)*
0 $4 $5 position (X,Y) of the second rounded end (center of the circle)*
0 Add line between two ends*
20,1,$1,$2,$3,$4,$5,0*
0 Add two circle primitives to create the rounded ends*
1,1,$1,$2,$3*
1,1,$1,$4,$5*%
G04 Aperture macros list end*
%TA.AperFunction,ComponentPad*%
%ADD10HorizOval,1.600000X-0.970820X-0.705342X0.970820X0.705342X0*%
%TD*%
%TA.AperFunction,ComponentPad*%
%ADD11HorizOval,1.600000X-0.370820X-1.141268X0.370820X1.141268X0*%
%TD*%
%TA.AperFunction,ComponentPad*%
%ADD12HorizOval,1.600000X-0.370820X1.141268X0.370820X-1.141268X0*%
%TD*%
%TA.AperFunction,ComponentPad*%
%ADD13HorizOval,1.600000X-0.970820X0.705342X0.970820X-0.705342X0*%
%TD*%
%TA.AperFunction,ComponentPad*%
%ADD14O,4.000000X1.600000*%
%TD*%
%TA.AperFunction,ComponentPad*%
%ADD15R,1.700000X1.700000*%
%TD*%
%TA.AperFunction,ComponentPad*%
%ADD16O,1.700000X1.700000*%
%TD*%
G04 APERTURE END LIST*
D10*
%TO.P,U1,1,A*%
%TO.N,/A1*%
X164125680Y-99630984D03*
D11*
%TO.P,U1,2,G*%
%TO.N,/G1*%
X166663130Y-96138484D03*
D12*
%TO.P,U1,3,K*%
%TO.N,/K1*%
X166663130Y-91821516D03*
D13*
%TO.P,U1,4,F1*%
%TO.N,/H1*%
X164125680Y-88329016D03*
D14*
%TO.P,U1,5,F1*%
%TO.N,/H3*%
X160020000Y-86995000D03*
D10*
%TO.P,U1,6,A*%
%TO.N,/A2*%
X155914320Y-88329016D03*
D11*
%TO.P,U1,7,G*%
%TO.N,/G2*%
X153376870Y-91821516D03*
D12*
%TO.P,U1,8,K*%
%TO.N,/K2*%
X153376870Y-96138484D03*
D13*
%TO.P,U1,9,F2*%
%TO.N,/H2*%
X155914320Y-99630984D03*
%TD*%
D15*
%TO.P,J1,1,Pin_1*%
%TO.N,/H1*%
X170170000Y-109220000D03*
D16*
%TO.P,J1,2,Pin_2*%
%TO.N,/K1*%
X167630000Y-109220000D03*
%TO.P,J1,3,Pin_3*%
%TO.N,/G1*%
X165090000Y-109220000D03*
%TO.P,J1,4,Pin_4*%
%TO.N,/A1*%
X162550000Y-109220000D03*
%TO.P,J1,5,Pin_5*%
%TO.N,/H3*%
X160010000Y-109220000D03*
%TO.P,J1,6,Pin_6*%
%TO.N,/H2*%
X157470000Y-109220000D03*
%TO.P,J1,7,Pin_7*%
%TO.N,/K2*%
X154930000Y-109220000D03*
%TO.P,J1,8,Pin_8*%
%TO.N,/G2*%
X152390000Y-109220000D03*
%TO.P,J1,9,Pin_9*%
%TO.N,/A2*%
X149850000Y-109220000D03*
%TD*%
%TA.AperFunction,NonConductor*%
G36*
X160402087Y-81799618D02*
G01*
X160688292Y-81807946D01*
X160695592Y-81808371D01*
X161098655Y-81843634D01*
X161357980Y-81866322D01*
X161365259Y-81867173D01*
X161568013Y-81896872D01*
X162023152Y-81963540D01*
X162030344Y-81964808D01*
X162437415Y-82048862D01*
X162681517Y-82099265D01*
X162688648Y-82100955D01*
X163330897Y-82273044D01*
X163337919Y-82275146D01*
X163969081Y-82484291D01*
X163975968Y-82486798D01*
X164593888Y-82732282D01*
X164600618Y-82735185D01*
X165203232Y-83016188D01*
X165209782Y-83019478D01*
X165795017Y-83335034D01*
X165801364Y-83338698D01*
X166367283Y-83687762D01*
X166373407Y-83691790D01*
X166918071Y-84073168D01*
X166923933Y-84077532D01*
X167123460Y-84235298D01*
X167445502Y-84489936D01*
X167451116Y-84494647D01*
X167947816Y-84936673D01*
X167953147Y-84941703D01*
X168423297Y-85411853D01*
X168428327Y-85417184D01*
X168870353Y-85913884D01*
X168875064Y-85919498D01*
X168927365Y-85985643D01*
X169225767Y-86363033D01*
X169287461Y-86441058D01*
X169291832Y-86446929D01*
X169509715Y-86758098D01*
X169673210Y-86991593D01*
X169677238Y-86997717D01*
X170026302Y-87563636D01*
X170029966Y-87569983D01*
X170345522Y-88155218D01*
X170348812Y-88161768D01*
X170629815Y-88764382D01*
X170632718Y-88771112D01*
X170878202Y-89389032D01*
X170880709Y-89395919D01*
X171089854Y-90027081D01*
X171091956Y-90034103D01*
X171264045Y-90676352D01*
X171265735Y-90683483D01*
X171400192Y-91334656D01*
X171401460Y-91341848D01*
X171425415Y-91505386D01*
X171497827Y-91999741D01*
X171498678Y-92007020D01*
X171512148Y-92160984D01*
X171555115Y-92652091D01*
X171556629Y-92669400D01*
X171557054Y-92676708D01*
X171568858Y-93082337D01*
X171575192Y-93300031D01*
X171573744Y-93323085D01*
X171572690Y-93329850D01*
X171572690Y-93329856D01*
X171571309Y-93338724D01*
X171572473Y-93347626D01*
X171572473Y-93347628D01*
X171575436Y-93370283D01*
X171576500Y-93386621D01*
X171576500Y-107899673D01*
X171556498Y-107967794D01*
X171502842Y-108014287D01*
X171432568Y-108024391D01*
X171374935Y-108000499D01*
X171331297Y-107967794D01*
X171266705Y-107919385D01*
X171130316Y-107868255D01*
X171068134Y-107861500D01*
X169271866Y-107861500D01*
X169209684Y-107868255D01*
X169073295Y-107919385D01*
X168956739Y-108006739D01*
X168869385Y-108123295D01*
X168866233Y-108131703D01*
X168824919Y-108241907D01*
X168782277Y-108298671D01*
X168715716Y-108323371D01*
X168646367Y-108308163D01*
X168613743Y-108282476D01*
X168563151Y-108226875D01*
X168563142Y-108226866D01*
X168559670Y-108223051D01*
X168555619Y-108219852D01*
X168555615Y-108219848D01*
X168388414Y-108087800D01*
X168388410Y-108087798D01*
X168384359Y-108084598D01*
X168188789Y-107976638D01*
X168183920Y-107974914D01*
X168183916Y-107974912D01*
X167983087Y-107903795D01*
X167983083Y-107903794D01*
X167978212Y-107902069D01*
X167973119Y-107901162D01*
X167973116Y-107901161D01*
X167763373Y-107863800D01*
X167763367Y-107863799D01*
X167758284Y-107862894D01*
X167684452Y-107861992D01*
X167540081Y-107860228D01*
X167540079Y-107860228D01*
X167534911Y-107860165D01*
X167314091Y-107893955D01*
X167101756Y-107963357D01*
X167071443Y-107979137D01*
X167003921Y-108014287D01*
X166903607Y-108066507D01*
X166899474Y-108069610D01*
X166899471Y-108069612D01*
X166729100Y-108197530D01*
X166724965Y-108200635D01*
X166685525Y-108241907D01*
X166631280Y-108298671D01*
X166570629Y-108362138D01*
X166463201Y-108519621D01*
X166408293Y-108564621D01*
X166337768Y-108572792D01*
X166274021Y-108541538D01*
X166253324Y-108517054D01*
X166172822Y-108392617D01*
X166172820Y-108392614D01*
X166170014Y-108388277D01*
X166019670Y-108223051D01*
X166015619Y-108219852D01*
X166015615Y-108219848D01*
X165848414Y-108087800D01*
X165848410Y-108087798D01*
X165844359Y-108084598D01*
X165648789Y-107976638D01*
X165643920Y-107974914D01*
X165643916Y-107974912D01*
X165443087Y-107903795D01*
X165443083Y-107903794D01*
X165438212Y-107902069D01*
X165433119Y-107901162D01*
X165433116Y-107901161D01*
X165223373Y-107863800D01*
X165223367Y-107863799D01*
X165218284Y-107862894D01*
X165144452Y-107861992D01*
X165000081Y-107860228D01*
X165000079Y-107860228D01*
X164994911Y-107860165D01*
X164774091Y-107893955D01*
X164561756Y-107963357D01*
X164531443Y-107979137D01*
X164463921Y-108014287D01*
X164363607Y-108066507D01*
X164359474Y-108069610D01*
X164359471Y-108069612D01*
X164189100Y-108197530D01*
X164184965Y-108200635D01*
X164145525Y-108241907D01*
X164091280Y-108298671D01*
X164030629Y-108362138D01*
X163923201Y-108519621D01*
X163868293Y-108564621D01*
X163797768Y-108572792D01*
X163734021Y-108541538D01*
X163713324Y-108517054D01*
X163632822Y-108392617D01*
X163632820Y-108392614D01*
X163630014Y-108388277D01*
X163479670Y-108223051D01*
X163475619Y-108219852D01*
X163475615Y-108219848D01*
X163308414Y-108087800D01*
X163308410Y-108087798D01*
X163304359Y-108084598D01*
X163108789Y-107976638D01*
X163103920Y-107974914D01*
X163103916Y-107974912D01*
X162903087Y-107903795D01*
X162903083Y-107903794D01*
X162898212Y-107902069D01*
X162893119Y-107901162D01*
X162893116Y-107901161D01*
X162683373Y-107863800D01*
X162683367Y-107863799D01*
X162678284Y-107862894D01*
X162604452Y-107861992D01*
X162460081Y-107860228D01*
X162460079Y-107860228D01*
X162454911Y-107860165D01*
X162234091Y-107893955D01*
X162021756Y-107963357D01*
X161991443Y-107979137D01*
X161923921Y-108014287D01*
X161823607Y-108066507D01*
X161819474Y-108069610D01*
X161819471Y-108069612D01*
X161649100Y-108197530D01*
X161644965Y-108200635D01*
X161605525Y-108241907D01*
X161551280Y-108298671D01*
X161490629Y-108362138D01*
X161383201Y-108519621D01*
X161328293Y-108564621D01*
X161257768Y-108572792D01*
X161194021Y-108541538D01*
X161173324Y-108517054D01*
X161092822Y-108392617D01*
X161092820Y-108392614D01*
X161090014Y-108388277D01*
X160939670Y-108223051D01*
X160935619Y-108219852D01*
X160935615Y-108219848D01*
X160768414Y-108087800D01*
X160768410Y-108087798D01*
X160764359Y-108084598D01*
X160568789Y-107976638D01*
X160563920Y-107974914D01*
X160563916Y-107974912D01*
X160363087Y-107903795D01*
X160363083Y-107903794D01*
X160358212Y-107902069D01*
X160353119Y-107901162D01*
X160353116Y-107901161D01*
X160143373Y-107863800D01*
X160143367Y-107863799D01*
X160138284Y-107862894D01*
X160064452Y-107861992D01*
X159920081Y-107860228D01*
X159920079Y-107860228D01*
X159914911Y-107860165D01*
X159694091Y-107893955D01*
X159481756Y-107963357D01*
X159451443Y-107979137D01*
X159383921Y-108014287D01*
X159283607Y-108066507D01*
X159279474Y-108069610D01*
X159279471Y-108069612D01*
X159109100Y-108197530D01*
X159104965Y-108200635D01*
X159065525Y-108241907D01*
X159011280Y-108298671D01*
X158950629Y-108362138D01*
X158843201Y-108519621D01*
X158788293Y-108564621D01*
X158717768Y-108572792D01*
X158654021Y-108541538D01*
X158633324Y-108517054D01*
X158552822Y-108392617D01*
X158552820Y-108392614D01*
X158550014Y-108388277D01*
X158399670Y-108223051D01*
X158395619Y-108219852D01*
X158395615Y-108219848D01*
X158228414Y-108087800D01*
X158228410Y-108087798D01*
X158224359Y-108084598D01*
X158028789Y-107976638D01*
X158023920Y-107974914D01*
X158023916Y-107974912D01*
X157823087Y-107903795D01*
X157823083Y-107903794D01*
X157818212Y-107902069D01*
X157813119Y-107901162D01*
X157813116Y-107901161D01*
X157603373Y-107863800D01*
X157603367Y-107863799D01*
X157598284Y-107862894D01*
X157524452Y-107861992D01*
X157380081Y-107860228D01*
X157380079Y-107860228D01*
X157374911Y-107860165D01*
X157154091Y-107893955D01*
X156941756Y-107963357D01*
X156911443Y-107979137D01*
X156843921Y-108014287D01*
X156743607Y-108066507D01*
X156739474Y-108069610D01*
X156739471Y-108069612D01*
X156569100Y-108197530D01*
X156564965Y-108200635D01*
X156525525Y-108241907D01*
X156471280Y-108298671D01*
X156410629Y-108362138D01*
X156303201Y-108519621D01*
X156248293Y-108564621D01*
X156177768Y-108572792D01*
X156114021Y-108541538D01*
X156093324Y-108517054D01*
X156012822Y-108392617D01*
X156012820Y-108392614D01*
X156010014Y-108388277D01*
X155859670Y-108223051D01*
X155855619Y-108219852D01*
X155855615Y-108219848D01*
X155688414Y-108087800D01*
X155688410Y-108087798D01*
X155684359Y-108084598D01*
X155488789Y-107976638D01*
X155483920Y-107974914D01*
X155483916Y-107974912D01*
X155283087Y-107903795D01*
X155283083Y-107903794D01*
X155278212Y-107902069D01*
X155273119Y-107901162D01*
X155273116Y-107901161D01*
X155063373Y-107863800D01*
X155063367Y-107863799D01*
X155058284Y-107862894D01*
X154984452Y-107861992D01*
X154840081Y-107860228D01*
X154840079Y-107860228D01*
X154834911Y-107860165D01*
X154614091Y-107893955D01*
X154401756Y-107963357D01*
X154371443Y-107979137D01*
X154303921Y-108014287D01*
X154203607Y-108066507D01*
X154199474Y-108069610D01*
X154199471Y-108069612D01*
X154029100Y-108197530D01*
X154024965Y-108200635D01*
X153985525Y-108241907D01*
X153931280Y-108298671D01*
X153870629Y-108362138D01*
X153763201Y-108519621D01*
X153708293Y-108564621D01*
X153637768Y-108572792D01*
X153574021Y-108541538D01*
X153553324Y-108517054D01*
X153472822Y-108392617D01*
X153472820Y-108392614D01*
X153470014Y-108388277D01*
X153319670Y-108223051D01*
X153315619Y-108219852D01*
X153315615Y-108219848D01*
X153148414Y-108087800D01*
X153148410Y-108087798D01*
X153144359Y-108084598D01*
X152948789Y-107976638D01*
X152943920Y-107974914D01*
X152943916Y-107974912D01*
X152743087Y-107903795D01*
X152743083Y-107903794D01*
X152738212Y-107902069D01*
X152733119Y-107901162D01*
X152733116Y-107901161D01*
X152523373Y-107863800D01*
X152523367Y-107863799D01*
X152518284Y-107862894D01*
X152444452Y-107861992D01*
X152300081Y-107860228D01*
X152300079Y-107860228D01*
X152294911Y-107860165D01*
X152074091Y-107893955D01*
X151861756Y-107963357D01*
X151831443Y-107979137D01*
X151763921Y-108014287D01*
X151663607Y-108066507D01*
X151659474Y-108069610D01*
X151659471Y-108069612D01*
X151489100Y-108197530D01*
X151484965Y-108200635D01*
X151445525Y-108241907D01*
X151391280Y-108298671D01*
X151330629Y-108362138D01*
X151223201Y-108519621D01*
X151168293Y-108564621D01*
X151097768Y-108572792D01*
X151034021Y-108541538D01*
X151013324Y-108517054D01*
X150932822Y-108392617D01*
X150932820Y-108392614D01*
X150930014Y-108388277D01*
X150779670Y-108223051D01*
X150775619Y-108219852D01*
X150775615Y-108219848D01*
X150608414Y-108087800D01*
X150608410Y-108087798D01*
X150604359Y-108084598D01*
X150408789Y-107976638D01*
X150403920Y-107974914D01*
X150403916Y-107974912D01*
X150203087Y-107903795D01*
X150203083Y-107903794D01*
X150198212Y-107902069D01*
X150193119Y-107901162D01*
X150193116Y-107901161D01*
X149983373Y-107863800D01*
X149983367Y-107863799D01*
X149978284Y-107862894D01*
X149904452Y-107861992D01*
X149760081Y-107860228D01*
X149760079Y-107860228D01*
X149754911Y-107860165D01*
X149534091Y-107893955D01*
X149321756Y-107963357D01*
X149291443Y-107979137D01*
X149223921Y-108014287D01*
X149123607Y-108066507D01*
X149119474Y-108069610D01*
X149119471Y-108069612D01*
X148949100Y-108197530D01*
X148944965Y-108200635D01*
X148905525Y-108241907D01*
X148851280Y-108298671D01*
X148790629Y-108362138D01*
X148787720Y-108366403D01*
X148787714Y-108366411D01*
X148693588Y-108504395D01*
X148638677Y-108549398D01*
X148568152Y-108557569D01*
X148504405Y-108526315D01*
X148467675Y-108465558D01*
X148463500Y-108433391D01*
X148463500Y-94951375D01*
X151693352Y-94951375D01*
X151693640Y-94956867D01*
X151702291Y-95121929D01*
X151705335Y-95180019D01*
X151743939Y-95347233D01*
X151744788Y-95349847D01*
X151744790Y-95349853D01*
X151798140Y-95514047D01*
X152520886Y-97738431D01*
X152587940Y-97896402D01*
X152712640Y-98088422D01*
X152868788Y-98255871D01*
X153051641Y-98393661D01*
X153255645Y-98497606D01*
X153260900Y-98499213D01*
X153260906Y-98499215D01*
X153406011Y-98543578D01*
X153474598Y-98564547D01*
X153523165Y-98570510D01*
X153541783Y-98572796D01*
X153606958Y-98600951D01*
X153646566Y-98659872D01*
X153650113Y-98721898D01*
X153637197Y-98788344D01*
X153633202Y-99017267D01*
X153669019Y-99243406D01*
X153670811Y-99248610D01*
X153732636Y-99428163D01*
X153743560Y-99459890D01*
X153854561Y-99660140D01*
X153998648Y-99838074D01*
X154128166Y-99950662D01*
X156162240Y-101428503D01*
X156164590Y-101429915D01*
X156164596Y-101429919D01*
X156304624Y-101514056D01*
X156309341Y-101516890D01*
X156314477Y-101518861D01*
X156314480Y-101518863D01*
X156517948Y-101596967D01*
X156517950Y-101596968D01*
X156523091Y-101598941D01*
X156528498Y-101599992D01*
X156742438Y-101641579D01*
X156742443Y-101641580D01*
X156747842Y-101642629D01*
X156976765Y-101646624D01*
X157202904Y-101610807D01*
X157254833Y-101592926D01*
X157414182Y-101538059D01*
X157414186Y-101538057D01*
X157419388Y-101536266D01*
X157424198Y-101533600D01*
X157424202Y-101533598D01*
X157614823Y-101427934D01*
X157619638Y-101425265D01*
X157623912Y-101421804D01*
X157623915Y-101421802D01*
X157793296Y-101284641D01*
X157793299Y-101284639D01*
X157797572Y-101281178D01*
X157947782Y-101108381D01*
X158065704Y-100912125D01*
X158147755Y-100698375D01*
X158191443Y-100473624D01*
X158195438Y-100244701D01*
X158159621Y-100018562D01*
X158136241Y-99950662D01*
X158086873Y-99807284D01*
X158086871Y-99807280D01*
X158085080Y-99802078D01*
X157974079Y-99601828D01*
X157829992Y-99423894D01*
X157700474Y-99311306D01*
X155666400Y-97833465D01*
X155664050Y-97832053D01*
X155664044Y-97832049D01*
X155524016Y-97747912D01*
X155524014Y-97747911D01*
X155519299Y-97745078D01*
X155514163Y-97743107D01*
X155514160Y-97743105D01*
X155310692Y-97665001D01*
X155310690Y-97665000D01*
X155305549Y-97663027D01*
X155300145Y-97661976D01*
X155300143Y-97661976D01*
X155264445Y-97655037D01*
X155140973Y-97631036D01*
X155077922Y-97598404D01*
X155042522Y-97536863D01*
X155039956Y-97491996D01*
X155059718Y-97331048D01*
X155060388Y-97325593D01*
X155048405Y-97096949D01*
X155009801Y-96929735D01*
X155004884Y-96914600D01*
X154549816Y-95514047D01*
X154232854Y-94538537D01*
X154165800Y-94380566D01*
X154041100Y-94188546D01*
X153964308Y-94106196D01*
X157009044Y-94106196D01*
X157009405Y-94109810D01*
X157009405Y-94109816D01*
X157028066Y-94296770D01*
X157043503Y-94451431D01*
X157117414Y-94790417D01*
X157118587Y-94793844D01*
X157118589Y-94793850D01*
X157228624Y-95115235D01*
X157229797Y-95118661D01*
X157379163Y-95431812D01*
X157563532Y-95725721D01*
X157565804Y-95728557D01*
X157565809Y-95728564D01*
X157622252Y-95799016D01*
X157780459Y-95996491D01*
X158027071Y-96240534D01*
X158300098Y-96454614D01*
X158595921Y-96635895D01*
X158599206Y-96637420D01*
X158599210Y-96637422D01*
X158838653Y-96748567D01*
X158910620Y-96781973D01*
X159014926Y-96816469D01*
X159236578Y-96889774D01*
X159236583Y-96889775D01*
X159240023Y-96890913D01*
X159243578Y-96891649D01*
X159243581Y-96891650D01*
X159576214Y-96960535D01*
X159576217Y-96960535D01*
X159579764Y-96961270D01*
X159718221Y-96973627D01*
X159882076Y-96988251D01*
X159882082Y-96988251D01*
X159884869Y-96988500D01*
X160108432Y-96988500D01*
X160110251Y-96988395D01*
X160110255Y-96988395D01*
X160362754Y-96973836D01*
X160362759Y-96973835D01*
X160366374Y-96973627D01*
X160441388Y-96960535D01*
X160704585Y-96914600D01*
X160704592Y-96914598D01*
X160708158Y-96913976D01*
X160711633Y-96912947D01*
X160711640Y-96912945D01*
X160844863Y-96873482D01*
X161040820Y-96815437D01*
X161044159Y-96814013D01*
X161356614Y-96680740D01*
X161356617Y-96680738D01*
X161359952Y-96679316D01*
X161363099Y-96677521D01*
X161363103Y-96677519D01*
X161658184Y-96509208D01*
X161661324Y-96507417D01*
X161940940Y-96302018D01*
X162195096Y-96065842D01*
X162420422Y-95802019D01*
X162613931Y-95514047D01*
X162773060Y-95205741D01*
X162895698Y-94881189D01*
X162980220Y-94544692D01*
X163025506Y-94200711D01*
X163028620Y-94002470D01*
X163030899Y-93857446D01*
X163030899Y-93857442D01*
X163030956Y-93853804D01*
X163030121Y-93845432D01*
X162996857Y-93512177D01*
X162996497Y-93508569D01*
X162922586Y-93169583D01*
X162869346Y-93014080D01*
X162811376Y-92844765D01*
X162810203Y-92841339D01*
X162660837Y-92528188D01*
X162476468Y-92234279D01*
X162474196Y-92231443D01*
X162474191Y-92231436D01*
X162261813Y-91966345D01*
X162259541Y-91963509D01*
X162012929Y-91719466D01*
X161739902Y-91505386D01*
X161444079Y-91324105D01*
X161440794Y-91322580D01*
X161440790Y-91322578D01*
X161132663Y-91179551D01*
X161129380Y-91178027D01*
X160959112Y-91121716D01*
X160803422Y-91070226D01*
X160803417Y-91070225D01*
X160799977Y-91069087D01*
X160796422Y-91068351D01*
X160796419Y-91068350D01*
X160463786Y-90999465D01*
X160463783Y-90999465D01*
X160460236Y-90998730D01*
X160305947Y-90984960D01*
X160157924Y-90971749D01*
X160157918Y-90971749D01*
X160155131Y-90971500D01*
X159931568Y-90971500D01*
X159929749Y-90971605D01*
X159929745Y-90971605D01*
X159677246Y-90986164D01*
X159677241Y-90986165D01*
X159673626Y-90986373D01*
X159604669Y-90998408D01*
X159335415Y-91045400D01*
X159335408Y-91045402D01*
X159331842Y-91046024D01*
X159328367Y-91047053D01*
X159328360Y-91047055D01*
X159250137Y-91070226D01*
X158999180Y-91144563D01*
X158995844Y-91145986D01*
X158995841Y-91145987D01*
X158683386Y-91279260D01*
X158683383Y-91279262D01*
X158680048Y-91280684D01*
X158676901Y-91282479D01*
X158676897Y-91282481D01*
X158579150Y-91338235D01*
X158378676Y-91452583D01*
X158099060Y-91657982D01*
X157844904Y-91894158D01*
X157619578Y-92157981D01*
X157426069Y-92445953D01*
X157266940Y-92754259D01*
X157144302Y-93078811D01*
X157059780Y-93415308D01*
X157014494Y-93759289D01*
X157013200Y-93841686D01*
X157009677Y-94065932D01*
X157009044Y-94106196D01*
X153964308Y-94106196D01*
X153926761Y-94065932D01*
X153894932Y-94002470D01*
X153902465Y-93931874D01*
X153926761Y-93894068D01*
X153932560Y-93887849D01*
X154041100Y-93771454D01*
X154165800Y-93579434D01*
X154232854Y-93421463D01*
X154805042Y-91660449D01*
X155008950Y-91032885D01*
X155008952Y-91032879D01*
X155009801Y-91030265D01*
X155048405Y-90863051D01*
X155060388Y-90634407D01*
X155039956Y-90468003D01*
X155051507Y-90397953D01*
X155099097Y-90345268D01*
X155140972Y-90328964D01*
X155264445Y-90304963D01*
X155300143Y-90298024D01*
X155300145Y-90298024D01*
X155305549Y-90296973D01*
X155310690Y-90295000D01*
X155310692Y-90294999D01*
X155514160Y-90216895D01*
X155514163Y-90216893D01*
X155519299Y-90214922D01*
X155524016Y-90212088D01*
X155664044Y-90127951D01*
X155664050Y-90127947D01*
X155666400Y-90126535D01*
X157700474Y-88648694D01*
X157829992Y-88536106D01*
X157974079Y-88358172D01*
X158055359Y-88211540D01*
X158105879Y-88161657D01*
X158175348Y-88147007D01*
X158218811Y-88158431D01*
X158365774Y-88226961D01*
X158365780Y-88226963D01*
X158370757Y-88229284D01*
X158376065Y-88230706D01*
X158376067Y-88230707D01*
X158586598Y-88287119D01*
X158586600Y-88287119D01*
X158591913Y-88288543D01*
X158691480Y-88297254D01*
X158760149Y-88303262D01*
X158760156Y-88303262D01*
X158762873Y-88303500D01*
X161277127Y-88303500D01*
X161279844Y-88303262D01*
X161279851Y-88303262D01*
X161348520Y-88297254D01*
X161448087Y-88288543D01*
X161453400Y-88287119D01*
X161453402Y-88287119D01*
X161663933Y-88230707D01*
X161663935Y-88230706D01*
X161669243Y-88229284D01*
X161674220Y-88226963D01*
X161674226Y-88226961D01*
X161821189Y-88158431D01*
X161891381Y-88147770D01*
X161956194Y-88176750D01*
X161984641Y-88211540D01*
X162065921Y-88358172D01*
X162210008Y-88536106D01*
X162339526Y-88648694D01*
X164373600Y-90126535D01*
X164375950Y-90127947D01*
X164375956Y-90127951D01*
X164515984Y-90212088D01*
X164520701Y-90214922D01*
X164525837Y-90216893D01*
X164525840Y-90216895D01*
X164729308Y-90294999D01*
X164729310Y-90295000D01*
X164734451Y-90296973D01*
X164739855Y-90298024D01*
X164739857Y-90298024D01*
X164775555Y-90304963D01*
X164899027Y-90328964D01*
X164962078Y-90361596D01*
X164997478Y-90423137D01*
X165000044Y-90468003D01*
X164979612Y-90634407D01*
X164991595Y-90863051D01*
X165030199Y-91030265D01*
X165031048Y-91032879D01*
X165031050Y-91032885D01*
X165234958Y-91660449D01*
X165807146Y-93421463D01*
X165874200Y-93579434D01*
X165998900Y-93771454D01*
X166107440Y-93887849D01*
X166113239Y-93894068D01*
X166145068Y-93957530D01*
X166137535Y-94028126D01*
X166113239Y-94065932D01*
X165998900Y-94188546D01*
X165874200Y-94380566D01*
X165807146Y-94538537D01*
X165490184Y-95514047D01*
X165035117Y-96914600D01*
X165030199Y-96929735D01*
X164991595Y-97096949D01*
X164979612Y-97325593D01*
X164980282Y-97331048D01*
X165000044Y-97491996D01*
X164988493Y-97562047D01*
X164940903Y-97614732D01*
X164899028Y-97631036D01*
X164775555Y-97655037D01*
X164739857Y-97661976D01*
X164739855Y-97661976D01*
X164734451Y-97663027D01*
X164729310Y-97665000D01*
X164729308Y-97665001D01*
X164525840Y-97743105D01*
X164525837Y-97743107D01*
X164520701Y-97745078D01*
X164515986Y-97747911D01*
X164515984Y-97747912D01*
X164375956Y-97832049D01*
X164375950Y-97832053D01*
X164373600Y-97833465D01*
X162339526Y-99311306D01*
X162210008Y-99423894D01*
X162065921Y-99601828D01*
X161954920Y-99802078D01*
X161953129Y-99807280D01*
X161953127Y-99807284D01*
X161903759Y-99950662D01*
X161880379Y-100018562D01*
X161844562Y-100244701D01*
X161848557Y-100473624D01*
X161892245Y-100698375D01*
X161974296Y-100912125D01*
X162092218Y-101108381D01*
X162242428Y-101281178D01*
X162246701Y-101284639D01*
X162246704Y-101284641D01*
X162416085Y-101421802D01*
X162416088Y-101421804D01*
X162420362Y-101425265D01*
X162425177Y-101427934D01*
X162615798Y-101533598D01*
X162615802Y-101533600D01*
X162620612Y-101536266D01*
X162625814Y-101538057D01*
X162625818Y-101538059D01*
X162785167Y-101592926D01*
X162837096Y-101610807D01*
X163063235Y-101646624D01*
X163292158Y-101642629D01*
X163297557Y-101641580D01*
X163297562Y-101641579D01*
X163511502Y-101599992D01*
X163516909Y-101598941D01*
X163522050Y-101596968D01*
X163522052Y-101596967D01*
X163725520Y-101518863D01*
X163725523Y-101518861D01*
X163730659Y-101516890D01*
X163735376Y-101514056D01*
X163875404Y-101429919D01*
X163875410Y-101429915D01*
X163877760Y-101428503D01*
X165911834Y-99950662D01*
X166041352Y-99838074D01*
X166185439Y-99660140D01*
X166296440Y-99459890D01*
X166307365Y-99428163D01*
X166369189Y-99248610D01*
X166370981Y-99243406D01*
X166406798Y-99017267D01*
X166402803Y-98788344D01*
X166389887Y-98721899D01*
X166396523Y-98651214D01*
X166440321Y-98595337D01*
X166498216Y-98572796D01*
X166565402Y-98564547D01*
X166633989Y-98543578D01*
X166779094Y-98499215D01*
X166779100Y-98499213D01*
X166784355Y-98497606D01*
X166988359Y-98393661D01*
X167171212Y-98255871D01*
X167327360Y-98088422D01*
X167452060Y-97896402D01*
X167519114Y-97738431D01*
X168241860Y-95514047D01*
X168295210Y-95349853D01*
X168295212Y-95349847D01*
X168296061Y-95347233D01*
X168334665Y-95180019D01*
X168337710Y-95121929D01*
X168346360Y-94956867D01*
X168346648Y-94951375D01*
X168318745Y-94724124D01*
X168317136Y-94718860D01*
X168253413Y-94510432D01*
X168253411Y-94510426D01*
X168251804Y-94505171D01*
X168147859Y-94301168D01*
X168010069Y-94118314D01*
X167960565Y-94072151D01*
X167924386Y-94011064D01*
X167926976Y-93940115D01*
X167960565Y-93887849D01*
X168006052Y-93845432D01*
X168006053Y-93845431D01*
X168010069Y-93841686D01*
X168147859Y-93658832D01*
X168251804Y-93454829D01*
X168253411Y-93449574D01*
X168253413Y-93449568D01*
X168317136Y-93241140D01*
X168317137Y-93241136D01*
X168318745Y-93235876D01*
X168346648Y-93008625D01*
X168337881Y-92841339D01*
X168334953Y-92785473D01*
X168334953Y-92785471D01*
X168334665Y-92779981D01*
X168296061Y-92612767D01*
X168242906Y-92449171D01*
X167936251Y-91505386D01*
X167519114Y-90221569D01*
X167452060Y-90063598D01*
X167327360Y-89871578D01*
X167171212Y-89704129D01*
X166988359Y-89566339D01*
X166784355Y-89462394D01*
X166779100Y-89460787D01*
X166779094Y-89460785D01*
X166633989Y-89416422D01*
X166565402Y-89395453D01*
X166498216Y-89387204D01*
X166433042Y-89359049D01*
X166393434Y-89300128D01*
X166389887Y-89238100D01*
X166401753Y-89177058D01*
X166401753Y-89177057D01*
X166402803Y-89171656D01*
X166406798Y-88942733D01*
X166370981Y-88716594D01*
X166347601Y-88648694D01*
X166298233Y-88505316D01*
X166298231Y-88505312D01*
X166296440Y-88500110D01*
X166185439Y-88299860D01*
X166129441Y-88230707D01*
X166044809Y-88126195D01*
X166041352Y-88121926D01*
X165911834Y-88009338D01*
X163877760Y-86531497D01*
X163875410Y-86530085D01*
X163875404Y-86530081D01*
X163735376Y-86445944D01*
X163735374Y-86445943D01*
X163730659Y-86443110D01*
X163725523Y-86441139D01*
X163725520Y-86441137D01*
X163522052Y-86363033D01*
X163522050Y-86363032D01*
X163516909Y-86361059D01*
X163451441Y-86348333D01*
X163297562Y-86318421D01*
X163297557Y-86318420D01*
X163292158Y-86317371D01*
X163063235Y-86313376D01*
X162837096Y-86349193D01*
X162785167Y-86367074D01*
X162625818Y-86421941D01*
X162625814Y-86421943D01*
X162620612Y-86423734D01*
X162561409Y-86456551D01*
X162492135Y-86472082D01*
X162425458Y-86447694D01*
X162386131Y-86399599D01*
X162359852Y-86343243D01*
X162359846Y-86343232D01*
X162357523Y-86338251D01*
X162226198Y-86150700D01*
X162064300Y-85988802D01*
X162059792Y-85985645D01*
X162059789Y-85985643D01*
X161957306Y-85913884D01*
X161876749Y-85857477D01*
X161871767Y-85855154D01*
X161871762Y-85855151D01*
X161674225Y-85763039D01*
X161674224Y-85763039D01*
X161669243Y-85760716D01*
X161663935Y-85759294D01*
X161663933Y-85759293D01*
X161453402Y-85702881D01*
X161453400Y-85702881D01*
X161448087Y-85701457D01*
X161348520Y-85692746D01*
X161279851Y-85686738D01*
X161279844Y-85686738D01*
X161277127Y-85686500D01*
X158762873Y-85686500D01*
X158760156Y-85686738D01*
X158760149Y-85686738D01*
X158691480Y-85692746D01*
X158591913Y-85701457D01*
X158586600Y-85702881D01*
X158586598Y-85702881D01*
X158376067Y-85759293D01*
X158376065Y-85759294D01*
X158370757Y-85760716D01*
X158365776Y-85763039D01*
X158365775Y-85763039D01*
X158168238Y-85855151D01*
X158168233Y-85855154D01*
X158163251Y-85857477D01*
X158082694Y-85913884D01*
X157980211Y-85985643D01*
X157980208Y-85985645D01*
X157975700Y-85988802D01*
X157813802Y-86150700D01*
X157682477Y-86338251D01*
X157680154Y-86343232D01*
X157680148Y-86343243D01*
X157653869Y-86399599D01*
X157606952Y-86452883D01*
X157538675Y-86472344D01*
X157478591Y-86456551D01*
X157419388Y-86423734D01*
X157414186Y-86421943D01*
X157414182Y-86421941D01*
X157254833Y-86367074D01*
X157202904Y-86349193D01*
X156976765Y-86313376D01*
X156747842Y-86317371D01*
X156742443Y-86318420D01*
X156742438Y-86318421D01*
X156588559Y-86348333D01*
X156523091Y-86361059D01*
X156517950Y-86363032D01*
X156517948Y-86363033D01*
X156314480Y-86441137D01*
X156314477Y-86441139D01*
X156309341Y-86443110D01*
X156304626Y-86445943D01*
X156304624Y-86445944D01*
X156164596Y-86530081D01*
X156164590Y-86530085D01*
X156162240Y-86531497D01*
X154128166Y-88009338D01*
X153998648Y-88121926D01*
X153995191Y-88126195D01*
X153910560Y-88230707D01*
X153854561Y-88299860D01*
X153743560Y-88500110D01*
X153741769Y-88505312D01*
X153741767Y-88505316D01*
X153692399Y-88648694D01*
X153669019Y-88716594D01*
X153633202Y-88942733D01*
X153637197Y-89171656D01*
X153638247Y-89177057D01*
X153638247Y-89177058D01*
X153650113Y-89238100D01*
X153643477Y-89308786D01*
X153599679Y-89364663D01*
X153541783Y-89387204D01*
X153526895Y-89389032D01*
X153474598Y-89395453D01*
X153406011Y-89416422D01*
X153260906Y-89460785D01*
X153260900Y-89460787D01*
X153255645Y-89462394D01*
X153051641Y-89566339D01*
X152868788Y-89704129D01*
X152712640Y-89871578D01*
X152587940Y-90063598D01*
X152520886Y-90221569D01*
X152103749Y-91505386D01*
X151797095Y-92449171D01*
X151743939Y-92612767D01*
X151705335Y-92779981D01*
X151705047Y-92785471D01*
X151705047Y-92785473D01*
X151702119Y-92841339D01*
X151693352Y-93008625D01*
X151721255Y-93235876D01*
X151722863Y-93241136D01*
X151722864Y-93241140D01*
X151786587Y-93449568D01*
X151786589Y-93449574D01*
X151788196Y-93454829D01*
X151892141Y-93658833D01*
X152029931Y-93841686D01*
X152033947Y-93845431D01*
X152033948Y-93845432D01*
X152079435Y-93887849D01*
X152115614Y-93948936D01*
X152113024Y-94019885D01*
X152079435Y-94072151D01*
X152029931Y-94118314D01*
X151892141Y-94301167D01*
X151788196Y-94505171D01*
X151786589Y-94510426D01*
X151786587Y-94510432D01*
X151722864Y-94718860D01*
X151721255Y-94724124D01*
X151693352Y-94951375D01*
X148463500Y-94951375D01*
X148463500Y-93398250D01*
X148465246Y-93377345D01*
X148467770Y-93362344D01*
X148467770Y-93362341D01*
X148468576Y-93357552D01*
X148468729Y-93345000D01*
X148465917Y-93325363D01*
X148464698Y-93303842D01*
X148475876Y-92919681D01*
X148482946Y-92676708D01*
X148483371Y-92669400D01*
X148484886Y-92652091D01*
X148527852Y-92160984D01*
X148541322Y-92007020D01*
X148542173Y-91999741D01*
X148614585Y-91505386D01*
X148638540Y-91341848D01*
X148639808Y-91334656D01*
X148774265Y-90683483D01*
X148775955Y-90676352D01*
X148948044Y-90034103D01*
X148950146Y-90027081D01*
X149159291Y-89395919D01*
X149161798Y-89389032D01*
X149407282Y-88771112D01*
X149410185Y-88764382D01*
X149691188Y-88161768D01*
X149694478Y-88155218D01*
X150010034Y-87569983D01*
X150013698Y-87563636D01*
X150362762Y-86997717D01*
X150366790Y-86991593D01*
X150530285Y-86758098D01*
X150748168Y-86446929D01*
X150752539Y-86441058D01*
X150814234Y-86363033D01*
X151112635Y-85985643D01*
X151164936Y-85919498D01*
X151169647Y-85913884D01*
X151611673Y-85417184D01*
X151616703Y-85411853D01*
X152086853Y-84941703D01*
X152092184Y-84936673D01*
X152588884Y-84494647D01*
X152594498Y-84489936D01*
X152916540Y-84235298D01*
X153116067Y-84077532D01*
X153121929Y-84073168D01*
X153666593Y-83691790D01*
X153672717Y-83687762D01*
X154238636Y-83338698D01*
X154244983Y-83335034D01*
X154830218Y-83019478D01*
X154836768Y-83016188D01*
X155439382Y-82735185D01*
X155446112Y-82732282D01*
X156064032Y-82486798D01*
X156070919Y-82484291D01*
X156702081Y-82275146D01*
X156709103Y-82273044D01*
X157351352Y-82100955D01*
X157358483Y-82099265D01*
X157602585Y-82048862D01*
X158009656Y-81964808D01*
X158016848Y-81963540D01*
X158471987Y-81896872D01*
X158674741Y-81867173D01*
X158682020Y-81866322D01*
X158941345Y-81843634D01*
X159344408Y-81808371D01*
X159351708Y-81807946D01*
X159637913Y-81799618D01*
X160016335Y-81788607D01*
X160023665Y-81788607D01*
X160402087Y-81799618D01*
G37*
%TD.AperFunction*%
M02*
