M48
; DRILL file {KiCad (6.0.5)} date Wed Feb 15 13:57:17 2023
; FORMAT={-:-/ absolute / inch / decimal}
; #@! TF.CreationDate,2023-02-15T13:57:17-05:00
; #@! TF.GenerationSoftware,Kicad,Pcbnew,(6.0.5)
; #@! TF.FileFunction,Plated,1,2,PTH
FMAT,2
INCH
; #@! TA.AperFunction,Plated,PTH,ComponentDrill
T1C0.0236
; #@! TA.AperFunction,Plated,PTH,ComponentDrill
T2C0.0394
%
G90
G05
T2
X5.8996Y-4.3
X5.9996Y-4.3
X6.0996Y-4.3
X6.1996Y-4.3
X6.2996Y-4.3
X6.3996Y-4.3
X6.4996Y-4.3
X6.5996Y-4.3
X6.6996Y-4.3
T1
G00X6.0531Y-3.5701
M15
G01X6.0239Y-3.66
M16
G05
G00X6.0239Y-3.74
M15
G01X6.0531Y-3.8299
M16
G05
G00X6.1766Y-3.4498
M15
G01X6.1001Y-3.5053
M16
G05
G00X6.1001Y-3.8947
M15
G01X6.1766Y-3.9502
M16
G05
G00X6.2528Y-3.425
M15
G01X6.3472Y-3.425
M16
G05
G00X6.4234Y-3.4498
M15
G01X6.4999Y-3.5053
M16
G05
G00X6.4999Y-3.8947
M15
G01X6.4234Y-3.9502
M16
G05
G00X6.5469Y-3.5701
M15
G01X6.5761Y-3.66
M16
G05
G00X6.5761Y-3.74
M15
G01X6.5469Y-3.8299
M16
G05
T0
M30
