M48
; DRILL file {KiCad (6.0.5)} date Thu Jan 12 15:22:20 2023
; FORMAT={-:-/ absolute / inch / decimal}
; #@! TF.CreationDate,2023-01-12T15:22:20-05:00
; #@! TF.GenerationSoftware,Kicad,Pcbnew,(6.0.5)
; #@! TF.FileFunction,Plated,1,2,PTH
FMAT,2
INCH
; #@! TA.AperFunction,Plated,PTH,ComponentDrill
T1C0.0236
; #@! TA.AperFunction,Plated,PTH,ComponentDrill
T2C0.0394
%
G90
G05
T2
X5.8996Y-4.3
X5.9996Y-4.3
X6.0996Y-4.3
X6.1996Y-4.3
X6.2996Y-4.3
X6.3996Y-4.3
X6.4996Y-4.3
X6.5996Y-4.3
X6.6996Y-4.3
T1
G00X6.0756Y-3.5816
M15
G01X6.0489Y-3.6639
M16
G05
G00X6.0489Y-3.7361
M15
G01X6.0756Y-3.8184
M16
G05
G00X6.1881Y-3.4723
M15
G01X6.118Y-3.5232
M16
G05
G00X6.118Y-3.8768
M15
G01X6.1881Y-3.9277
M16
G05
G00X6.2567Y-3.45
M15
G01X6.3433Y-3.45
M16
G05
G00X6.4119Y-3.4723
M15
G01X6.482Y-3.5232
M16
G05
G00X6.482Y-3.8768
M15
G01X6.4119Y-3.9277
M16
G05
G00X6.5244Y-3.5816
M15
G01X6.5511Y-3.6639
M16
G05
G00X6.5511Y-3.7361
M15
G01X6.5244Y-3.8184
M16
G05
T0
M30
