%TF.GenerationSoftware,KiCad,Pcbnew,(6.0.5)*%
%TF.CreationDate,2023-02-15T13:57:15-05:00*%
%TF.ProjectId,12ax7_socket,31326178-375f-4736-9f63-6b65742e6b69,rev?*%
%TF.SameCoordinates,Original*%
%TF.FileFunction,Legend,Top*%
%TF.FilePolarity,Positive*%
%FSLAX46Y46*%
G04 Gerber Fmt 4.6, Leading zero omitted, Abs format (unit mm)*
G04 Created by KiCad (PCBNEW (6.0.5)) date 2023-02-15 13:57:15*
%MOMM*%
%LPD*%
G01*
G04 APERTURE LIST*
%ADD10C,0.075000*%
%ADD11C,0.300000*%
%ADD12C,0.120000*%
G04 APERTURE END LIST*
D10*
X157710476Y-96881190D02*
X157710476Y-97238333D01*
X157686666Y-97309761D01*
X157639047Y-97357380D01*
X157567619Y-97381190D01*
X157520000Y-97381190D01*
X158186666Y-97381190D02*
X157948571Y-97381190D01*
X157948571Y-96881190D01*
X158639047Y-97333571D02*
X158615238Y-97357380D01*
X158543809Y-97381190D01*
X158496190Y-97381190D01*
X158424761Y-97357380D01*
X158377142Y-97309761D01*
X158353333Y-97262142D01*
X158329523Y-97166904D01*
X158329523Y-97095476D01*
X158353333Y-97000238D01*
X158377142Y-96952619D01*
X158424761Y-96905000D01*
X158496190Y-96881190D01*
X158543809Y-96881190D01*
X158615238Y-96905000D01*
X158639047Y-96928809D01*
X158996190Y-96881190D02*
X158996190Y-97238333D01*
X158972380Y-97309761D01*
X158924761Y-97357380D01*
X158853333Y-97381190D01*
X158805714Y-97381190D01*
X159472380Y-97381190D02*
X159234285Y-97381190D01*
X159234285Y-96881190D01*
X159924761Y-97333571D02*
X159900952Y-97357380D01*
X159829523Y-97381190D01*
X159781904Y-97381190D01*
X159710476Y-97357380D01*
X159662857Y-97309761D01*
X159639047Y-97262142D01*
X159615238Y-97166904D01*
X159615238Y-97095476D01*
X159639047Y-97000238D01*
X159662857Y-96952619D01*
X159710476Y-96905000D01*
X159781904Y-96881190D01*
X159829523Y-96881190D01*
X159900952Y-96905000D01*
X159924761Y-96928809D01*
X160281904Y-96881190D02*
X160281904Y-97238333D01*
X160258095Y-97309761D01*
X160210476Y-97357380D01*
X160139047Y-97381190D01*
X160091428Y-97381190D01*
X160758095Y-97381190D02*
X160520000Y-97381190D01*
X160520000Y-96881190D01*
X161210476Y-97333571D02*
X161186666Y-97357380D01*
X161115238Y-97381190D01*
X161067619Y-97381190D01*
X160996190Y-97357380D01*
X160948571Y-97309761D01*
X160924761Y-97262142D01*
X160900952Y-97166904D01*
X160900952Y-97095476D01*
X160924761Y-97000238D01*
X160948571Y-96952619D01*
X160996190Y-96905000D01*
X161067619Y-96881190D01*
X161115238Y-96881190D01*
X161186666Y-96905000D01*
X161210476Y-96928809D01*
X161567619Y-96881190D02*
X161567619Y-97238333D01*
X161543809Y-97309761D01*
X161496190Y-97357380D01*
X161424761Y-97381190D01*
X161377142Y-97381190D01*
X162043809Y-97381190D02*
X161805714Y-97381190D01*
X161805714Y-96881190D01*
X162496190Y-97333571D02*
X162472380Y-97357380D01*
X162400952Y-97381190D01*
X162353333Y-97381190D01*
X162281904Y-97357380D01*
X162234285Y-97309761D01*
X162210476Y-97262142D01*
X162186666Y-97166904D01*
X162186666Y-97095476D01*
X162210476Y-97000238D01*
X162234285Y-96952619D01*
X162281904Y-96905000D01*
X162353333Y-96881190D01*
X162400952Y-96881190D01*
X162472380Y-96905000D01*
X162496190Y-96928809D01*
D11*
X164350000Y-105977142D02*
X164278571Y-106120000D01*
X164278571Y-106334285D01*
X164350000Y-106548571D01*
X164492857Y-106691428D01*
X164635714Y-106762857D01*
X164921428Y-106834285D01*
X165135714Y-106834285D01*
X165421428Y-106762857D01*
X165564285Y-106691428D01*
X165707142Y-106548571D01*
X165778571Y-106334285D01*
X165778571Y-106191428D01*
X165707142Y-105977142D01*
X165635714Y-105905714D01*
X165135714Y-105905714D01*
X165135714Y-106191428D01*
X165778571Y-104477142D02*
X165778571Y-105334285D01*
X165778571Y-104905714D02*
X164278571Y-104905714D01*
X164492857Y-105048571D01*
X164635714Y-105191428D01*
X164707142Y-105334285D01*
X151650000Y-105977142D02*
X151578571Y-106120000D01*
X151578571Y-106334285D01*
X151650000Y-106548571D01*
X151792857Y-106691428D01*
X151935714Y-106762857D01*
X152221428Y-106834285D01*
X152435714Y-106834285D01*
X152721428Y-106762857D01*
X152864285Y-106691428D01*
X153007142Y-106548571D01*
X153078571Y-106334285D01*
X153078571Y-106191428D01*
X153007142Y-105977142D01*
X152935714Y-105905714D01*
X152435714Y-105905714D01*
X152435714Y-106191428D01*
X151721428Y-105334285D02*
X151650000Y-105262857D01*
X151578571Y-105120000D01*
X151578571Y-104762857D01*
X151650000Y-104620000D01*
X151721428Y-104548571D01*
X151864285Y-104477142D01*
X152007142Y-104477142D01*
X152221428Y-104548571D01*
X153078571Y-105405714D01*
X153078571Y-104477142D01*
X170858571Y-106762857D02*
X169358571Y-106762857D01*
X170072857Y-106762857D02*
X170072857Y-105905714D01*
X170858571Y-105905714D02*
X169358571Y-105905714D01*
X158158571Y-106762857D02*
X156658571Y-106762857D01*
X157372857Y-106762857D02*
X157372857Y-105905714D01*
X158158571Y-105905714D02*
X156658571Y-105905714D01*
X156801428Y-105262857D02*
X156730000Y-105191428D01*
X156658571Y-105048571D01*
X156658571Y-104691428D01*
X156730000Y-104548571D01*
X156801428Y-104477142D01*
X156944285Y-104405714D01*
X157087142Y-104405714D01*
X157301428Y-104477142D01*
X158158571Y-105334285D01*
X158158571Y-104405714D01*
X168318571Y-106762857D02*
X166818571Y-106762857D01*
X168318571Y-105905714D02*
X167461428Y-106548571D01*
X166818571Y-105905714D02*
X167675714Y-106762857D01*
X168318571Y-104477142D02*
X168318571Y-105334285D01*
X168318571Y-104905714D02*
X166818571Y-104905714D01*
X167032857Y-105048571D01*
X167175714Y-105191428D01*
X167247142Y-105334285D01*
X150110000Y-106834285D02*
X150110000Y-106120000D01*
X150538571Y-106977142D02*
X149038571Y-106477142D01*
X150538571Y-105977142D01*
X149181428Y-105548571D02*
X149110000Y-105477142D01*
X149038571Y-105334285D01*
X149038571Y-104977142D01*
X149110000Y-104834285D01*
X149181428Y-104762857D01*
X149324285Y-104691428D01*
X149467142Y-104691428D01*
X149681428Y-104762857D01*
X150538571Y-105620000D01*
X150538571Y-104691428D01*
X162810000Y-106834285D02*
X162810000Y-106120000D01*
X163238571Y-106977142D02*
X161738571Y-106477142D01*
X163238571Y-105977142D01*
X163238571Y-104691428D02*
X163238571Y-105548571D01*
X163238571Y-105120000D02*
X161738571Y-105120000D01*
X161952857Y-105262857D01*
X162095714Y-105405714D01*
X162167142Y-105548571D01*
X155618571Y-106762857D02*
X154118571Y-106762857D01*
X155618571Y-105905714D02*
X154761428Y-106548571D01*
X154118571Y-105905714D02*
X154975714Y-106762857D01*
X154261428Y-105334285D02*
X154190000Y-105262857D01*
X154118571Y-105120000D01*
X154118571Y-104762857D01*
X154190000Y-104620000D01*
X154261428Y-104548571D01*
X154404285Y-104477142D01*
X154547142Y-104477142D01*
X154761428Y-104548571D01*
X155618571Y-105405714D01*
X155618571Y-104477142D01*
X160698571Y-106762857D02*
X159198571Y-106762857D01*
X159912857Y-106762857D02*
X159912857Y-105905714D01*
X160698571Y-105905714D02*
X159198571Y-105905714D01*
D12*
%TO.C,U1*%
X170259067Y-93980000D02*
G75*
G03*
X170259067Y-93980000I-10239067J0D01*
G01*
%TO.C,J1*%
X168900000Y-107890000D02*
X148520000Y-107890000D01*
X171500000Y-107890000D02*
X171500000Y-109220000D01*
X148520000Y-107890000D02*
X148520000Y-110550000D01*
X168900000Y-110550000D02*
X148520000Y-110550000D01*
X168900000Y-107890000D02*
X168900000Y-110550000D01*
X170170000Y-107890000D02*
X171500000Y-107890000D01*
%TD*%
M02*
