%TF.GenerationSoftware,KiCad,Pcbnew,(6.0.5)*%
%TF.CreationDate,2023-01-12T15:22:18-05:00*%
%TF.ProjectId,12ax7_socket,31326178-375f-4736-9f63-6b65742e6b69,rev?*%
%TF.SameCoordinates,Original*%
%TF.FileFunction,Copper,L2,Bot*%
%TF.FilePolarity,Positive*%
%FSLAX46Y46*%
G04 Gerber Fmt 4.6, Leading zero omitted, Abs format (unit mm)*
G04 Created by KiCad (PCBNEW (6.0.5)) date 2023-01-12 15:22:18*
%MOMM*%
%LPD*%
G01*
G04 APERTURE LIST*
G04 Aperture macros list*
%AMHorizOval*
0 Thick line with rounded ends*
0 $1 width*
0 $2 $3 position (X,Y) of the first rounded end (center of the circle)*
0 $4 $5 position (X,Y) of the second rounded end (center of the circle)*
0 Add line between two ends*
20,1,$1,$2,$3,$4,$5,0*
0 Add two circle primitives to create the rounded ends*
1,1,$1,$2,$3*
1,1,$1,$4,$5*%
G04 Aperture macros list end*
%TA.AperFunction,ComponentPad*%
%ADD10HorizOval,1.600000X-0.889919X-0.646564X0.889919X0.646564X0*%
%TD*%
%TA.AperFunction,ComponentPad*%
%ADD11HorizOval,1.600000X-0.339919X-1.046162X0.339919X1.046162X0*%
%TD*%
%TA.AperFunction,ComponentPad*%
%ADD12HorizOval,1.600000X-0.339919X1.046162X0.339919X-1.046162X0*%
%TD*%
%TA.AperFunction,ComponentPad*%
%ADD13HorizOval,1.600000X-0.889919X0.646564X0.889919X-0.646564X0*%
%TD*%
%TA.AperFunction,ComponentPad*%
%ADD14O,3.800000X1.600000*%
%TD*%
%TA.AperFunction,ComponentPad*%
%ADD15R,1.700000X1.700000*%
%TD*%
%TA.AperFunction,ComponentPad*%
%ADD16O,1.700000X1.700000*%
%TD*%
%TA.AperFunction,Conductor*%
%ADD17C,1.400000*%
%TD*%
G04 APERTURE END LIST*
D10*
%TO.P,U1,1,A*%
%TO.N,/A1*%
X163752436Y-99117258D03*
D11*
%TO.P,U1,2,G*%
%TO.N,/G1*%
X166059209Y-95942258D03*
D12*
%TO.P,U1,3,K*%
%TO.N,/K1*%
X166059209Y-92017742D03*
D13*
%TO.P,U1,4,F1*%
%TO.N,/H1*%
X163752436Y-88842742D03*
D14*
%TO.P,U1,5,F1*%
%TO.N,/H3*%
X160020000Y-87630000D03*
D10*
%TO.P,U1,6,A*%
%TO.N,/A2*%
X156287564Y-88842742D03*
D11*
%TO.P,U1,7,G*%
%TO.N,/G2*%
X153980791Y-92017742D03*
D12*
%TO.P,U1,8,K*%
%TO.N,/K2*%
X153980791Y-95942258D03*
D13*
%TO.P,U1,9,F2*%
%TO.N,/H2*%
X156287564Y-99117258D03*
%TD*%
D15*
%TO.P,J1,1,Pin_1*%
%TO.N,/H1*%
X170170000Y-109220000D03*
D16*
%TO.P,J1,2,Pin_2*%
%TO.N,/K1*%
X167630000Y-109220000D03*
%TO.P,J1,3,Pin_3*%
%TO.N,/G1*%
X165090000Y-109220000D03*
%TO.P,J1,4,Pin_4*%
%TO.N,/A1*%
X162550000Y-109220000D03*
%TO.P,J1,5,Pin_5*%
%TO.N,/H3*%
X160010000Y-109220000D03*
%TO.P,J1,6,Pin_6*%
%TO.N,/H2*%
X157470000Y-109220000D03*
%TO.P,J1,7,Pin_7*%
%TO.N,/K2*%
X154930000Y-109220000D03*
%TO.P,J1,8,Pin_8*%
%TO.N,/G2*%
X152390000Y-109220000D03*
%TO.P,J1,9,Pin_9*%
%TO.N,/A2*%
X149850000Y-109220000D03*
%TD*%
D17*
%TO.N,/K1*%
X168275000Y-92710000D02*
X168275000Y-100965000D01*
X168275000Y-100965000D02*
X167630000Y-101610000D01*
X167582742Y-92017742D02*
X168275000Y-92710000D01*
X167630000Y-101610000D02*
X167630000Y-109220000D01*
X166059209Y-92017742D02*
X167582742Y-92017742D01*
%TO.N,/G2*%
X152400000Y-101600000D02*
X152390000Y-101610000D01*
X151806996Y-101006996D02*
X152400000Y-101600000D01*
X151806996Y-92668004D02*
X151806996Y-101006996D01*
X152390000Y-101610000D02*
X152390000Y-109220000D01*
X153980791Y-92017742D02*
X152457258Y-92017742D01*
X152457258Y-92017742D02*
X151806996Y-92668004D01*
%TO.N,/A1*%
X162550000Y-109220000D02*
X162550000Y-100319694D01*
X162550000Y-100319694D02*
X163752436Y-99117258D01*
%TO.N,/G1*%
X166431076Y-99633924D02*
X165090000Y-100975000D01*
X166431076Y-96314125D02*
X166431076Y-99633924D01*
X165090000Y-100975000D02*
X165090000Y-109220000D01*
X166059209Y-95942258D02*
X166431076Y-96314125D01*
%TO.N,/H1*%
X170170000Y-91430000D02*
X167582742Y-88842742D01*
X170170000Y-109220000D02*
X170170000Y-91430000D01*
X167582742Y-88842742D02*
X163752436Y-88842742D01*
%TO.N,/H2*%
X157470000Y-100299694D02*
X156287564Y-99117258D01*
X157470000Y-109220000D02*
X157470000Y-100299694D01*
%TO.N,/A2*%
X149850000Y-91450000D02*
X152457258Y-88842742D01*
X149850000Y-109220000D02*
X149850000Y-91450000D01*
X152457258Y-88842742D02*
X156287564Y-88842742D01*
%TO.N,/K2*%
X153608924Y-99633924D02*
X154940000Y-100965000D01*
X154940000Y-100965000D02*
X154930000Y-100975000D01*
X153608924Y-96314125D02*
X153608924Y-99633924D01*
X154930000Y-100975000D02*
X154930000Y-109220000D01*
X153980791Y-95942258D02*
X153608924Y-96314125D01*
%TO.N,/H3*%
X160010000Y-87640000D02*
X160020000Y-87630000D01*
X160010000Y-109220000D02*
X160010000Y-87640000D01*
%TD*%
M02*
