%TF.GenerationSoftware,KiCad,Pcbnew,(6.0.5)*%
%TF.CreationDate,2023-01-12T15:22:18-05:00*%
%TF.ProjectId,12ax7_socket,31326178-375f-4736-9f63-6b65742e6b69,rev?*%
%TF.SameCoordinates,Original*%
%TF.FileFunction,Legend,Bot*%
%TF.FilePolarity,Positive*%
%FSLAX46Y46*%
G04 Gerber Fmt 4.6, Leading zero omitted, Abs format (unit mm)*
G04 Created by KiCad (PCBNEW (6.0.5)) date 2023-01-12 15:22:18*
%MOMM*%
%LPD*%
G01*
G04 APERTURE LIST*
%ADD10C,0.300000*%
G04 APERTURE END LIST*
D10*
X158158571Y-106755000D02*
X158158571Y-107040714D01*
X158087142Y-107183571D01*
X158015714Y-107255000D01*
X157801428Y-107397857D01*
X157515714Y-107469285D01*
X156944285Y-107469285D01*
X156801428Y-107397857D01*
X156730000Y-107326428D01*
X156658571Y-107183571D01*
X156658571Y-106897857D01*
X156730000Y-106755000D01*
X156801428Y-106683571D01*
X156944285Y-106612142D01*
X157301428Y-106612142D01*
X157444285Y-106683571D01*
X157515714Y-106755000D01*
X157587142Y-106897857D01*
X157587142Y-107183571D01*
X157515714Y-107326428D01*
X157444285Y-107397857D01*
X157301428Y-107469285D01*
X155225714Y-101008571D02*
X154940000Y-101008571D01*
X154797142Y-100937142D01*
X154725714Y-100865714D01*
X154582857Y-100651428D01*
X154511428Y-100365714D01*
X154511428Y-99794285D01*
X154582857Y-99651428D01*
X154654285Y-99580000D01*
X154797142Y-99508571D01*
X155082857Y-99508571D01*
X155225714Y-99580000D01*
X155297142Y-99651428D01*
X155368571Y-99794285D01*
X155368571Y-100151428D01*
X155297142Y-100294285D01*
X155225714Y-100365714D01*
X155082857Y-100437142D01*
X154797142Y-100437142D01*
X154654285Y-100365714D01*
X154582857Y-100294285D01*
X154511428Y-100151428D01*
X164421428Y-106612142D02*
X164350000Y-106683571D01*
X164278571Y-106826428D01*
X164278571Y-107183571D01*
X164350000Y-107326428D01*
X164421428Y-107397857D01*
X164564285Y-107469285D01*
X164707142Y-107469285D01*
X164921428Y-107397857D01*
X165778571Y-106540714D01*
X165778571Y-107469285D01*
X149038571Y-107326428D02*
X149038571Y-107040714D01*
X149110000Y-106897857D01*
X149181428Y-106826428D01*
X149395714Y-106683571D01*
X149681428Y-106612142D01*
X150252857Y-106612142D01*
X150395714Y-106683571D01*
X150467142Y-106755000D01*
X150538571Y-106897857D01*
X150538571Y-107183571D01*
X150467142Y-107326428D01*
X150395714Y-107397857D01*
X150252857Y-107469285D01*
X149895714Y-107469285D01*
X149752857Y-107397857D01*
X149681428Y-107326428D01*
X149610000Y-107183571D01*
X149610000Y-106897857D01*
X149681428Y-106755000D01*
X149752857Y-106683571D01*
X149895714Y-106612142D01*
X154761428Y-106897857D02*
X154690000Y-106755000D01*
X154618571Y-106683571D01*
X154475714Y-106612142D01*
X154404285Y-106612142D01*
X154261428Y-106683571D01*
X154190000Y-106755000D01*
X154118571Y-106897857D01*
X154118571Y-107183571D01*
X154190000Y-107326428D01*
X154261428Y-107397857D01*
X154404285Y-107469285D01*
X154475714Y-107469285D01*
X154618571Y-107397857D01*
X154690000Y-107326428D01*
X154761428Y-107183571D01*
X154761428Y-106897857D01*
X154832857Y-106755000D01*
X154904285Y-106683571D01*
X155047142Y-106612142D01*
X155332857Y-106612142D01*
X155475714Y-106683571D01*
X155547142Y-106755000D01*
X155618571Y-106897857D01*
X155618571Y-107183571D01*
X155547142Y-107326428D01*
X155475714Y-107397857D01*
X155332857Y-107469285D01*
X155047142Y-107469285D01*
X154904285Y-107397857D01*
X154832857Y-107326428D01*
X154761428Y-107183571D01*
X163238571Y-107469285D02*
X163238571Y-106612142D01*
X163238571Y-107040714D02*
X161738571Y-107040714D01*
X161952857Y-106897857D01*
X162095714Y-106755000D01*
X162167142Y-106612142D01*
X159198571Y-107397857D02*
X159198571Y-106683571D01*
X159912857Y-106612142D01*
X159841428Y-106683571D01*
X159770000Y-106826428D01*
X159770000Y-107183571D01*
X159841428Y-107326428D01*
X159912857Y-107397857D01*
X160055714Y-107469285D01*
X160412857Y-107469285D01*
X160555714Y-107397857D01*
X160627142Y-107326428D01*
X160698571Y-107183571D01*
X160698571Y-106826428D01*
X160627142Y-106683571D01*
X160555714Y-106612142D01*
X151578571Y-106540714D02*
X151578571Y-107540714D01*
X153078571Y-106897857D01*
X166818571Y-106540714D02*
X166818571Y-107469285D01*
X167390000Y-106969285D01*
X167390000Y-107183571D01*
X167461428Y-107326428D01*
X167532857Y-107397857D01*
X167675714Y-107469285D01*
X168032857Y-107469285D01*
X168175714Y-107397857D01*
X168247142Y-107326428D01*
X168318571Y-107183571D01*
X168318571Y-106755000D01*
X168247142Y-106612142D01*
X168175714Y-106540714D01*
X162377142Y-92816071D02*
X163234285Y-92816071D01*
X162805714Y-92816071D02*
X162805714Y-91316071D01*
X162948571Y-91530357D01*
X163091428Y-91673214D01*
X163234285Y-91744642D01*
X161805714Y-91458928D02*
X161734285Y-91387500D01*
X161591428Y-91316071D01*
X161234285Y-91316071D01*
X161091428Y-91387500D01*
X161020000Y-91458928D01*
X160948571Y-91601785D01*
X160948571Y-91744642D01*
X161020000Y-91958928D01*
X161877142Y-92816071D01*
X160948571Y-92816071D01*
X160377142Y-92387500D02*
X159662857Y-92387500D01*
X160520000Y-92816071D02*
X160020000Y-91316071D01*
X159520000Y-92816071D01*
X159162857Y-91316071D02*
X158162857Y-92816071D01*
X158162857Y-91316071D02*
X159162857Y-92816071D01*
X157734285Y-91316071D02*
X156734285Y-91316071D01*
X157377142Y-92816071D01*
X163270000Y-94445357D02*
X162770000Y-94445357D01*
X162555714Y-95231071D02*
X163270000Y-95231071D01*
X163270000Y-93731071D01*
X162555714Y-93731071D01*
X161055714Y-95088214D02*
X161127142Y-95159642D01*
X161341428Y-95231071D01*
X161484285Y-95231071D01*
X161698571Y-95159642D01*
X161841428Y-95016785D01*
X161912857Y-94873928D01*
X161984285Y-94588214D01*
X161984285Y-94373928D01*
X161912857Y-94088214D01*
X161841428Y-93945357D01*
X161698571Y-93802500D01*
X161484285Y-93731071D01*
X161341428Y-93731071D01*
X161127142Y-93802500D01*
X161055714Y-93873928D01*
X159555714Y-95088214D02*
X159627142Y-95159642D01*
X159841428Y-95231071D01*
X159984285Y-95231071D01*
X160198571Y-95159642D01*
X160341428Y-95016785D01*
X160412857Y-94873928D01*
X160484285Y-94588214D01*
X160484285Y-94373928D01*
X160412857Y-94088214D01*
X160341428Y-93945357D01*
X160198571Y-93802500D01*
X159984285Y-93731071D01*
X159841428Y-93731071D01*
X159627142Y-93802500D01*
X159555714Y-93873928D01*
X158698571Y-94373928D02*
X158841428Y-94302500D01*
X158912857Y-94231071D01*
X158984285Y-94088214D01*
X158984285Y-94016785D01*
X158912857Y-93873928D01*
X158841428Y-93802500D01*
X158698571Y-93731071D01*
X158412857Y-93731071D01*
X158270000Y-93802500D01*
X158198571Y-93873928D01*
X158127142Y-94016785D01*
X158127142Y-94088214D01*
X158198571Y-94231071D01*
X158270000Y-94302500D01*
X158412857Y-94373928D01*
X158698571Y-94373928D01*
X158841428Y-94445357D01*
X158912857Y-94516785D01*
X158984285Y-94659642D01*
X158984285Y-94945357D01*
X158912857Y-95088214D01*
X158841428Y-95159642D01*
X158698571Y-95231071D01*
X158412857Y-95231071D01*
X158270000Y-95159642D01*
X158198571Y-95088214D01*
X158127142Y-94945357D01*
X158127142Y-94659642D01*
X158198571Y-94516785D01*
X158270000Y-94445357D01*
X158412857Y-94373928D01*
X157627142Y-93731071D02*
X156698571Y-93731071D01*
X157198571Y-94302500D01*
X156984285Y-94302500D01*
X156841428Y-94373928D01*
X156770000Y-94445357D01*
X156698571Y-94588214D01*
X156698571Y-94945357D01*
X156770000Y-95088214D01*
X156841428Y-95159642D01*
X156984285Y-95231071D01*
X157412857Y-95231071D01*
X157555714Y-95159642D01*
X157627142Y-95088214D01*
X164671428Y-101008571D02*
X165528571Y-101008571D01*
X165100000Y-101008571D02*
X165100000Y-99508571D01*
X165242857Y-99722857D01*
X165385714Y-99865714D01*
X165528571Y-99937142D01*
X169858571Y-107326428D02*
X170858571Y-107326428D01*
X169287142Y-106969285D02*
X170358571Y-106612142D01*
X170358571Y-107540714D01*
M02*
